<?xml version="1.0" encoding="UTF-8"?>
<svg width="16" height="16" viewBox="0 0 16 16" fill="none" xmlns="http://www.w3.org/2000/svg">
  <defs>
    <linearGradient id="grad" x1="0%" y1="0%" x2="100%" y2="100%">
      <stop offset="0%" style="stop-color:#7c5cff;stop-opacity:1" />
      <stop offset="100%" style="stop-color:#a78bff;stop-opacity:1" />
    </linearGradient>
  </defs>
  <rect width="16" height="16" rx="4" fill="url(#grad)"/>
  <g transform="scale(0.6666666666666666)">
    <path d="M7 10V5H17V10" stroke="white" stroke-width="1.5" stroke-linecap="round" stroke-linejoin="round"/>
    <path d="M7 16H5.5C5.1 16 4.7 15.85 4.4 15.56C4.15 15.3 4 14.9 4 14.5V11.5C4 11.1 4.15 10.7 4.4 10.4C4.7 10.15 5.1 10 5.5 10H18.5C18.9 10 19.3 10.15 19.6 10.4C19.85 10.7 20 11.1 20 11.5V14.5C20 14.9 19.85 15.3 19.6 15.56C19.3 15.85 18.9 16 18.5 16H17" stroke="white" stroke-width="1.5" stroke-linecap="round" stroke-linejoin="round"/>
    <path d="M17 13H7V19H17V13Z" stroke="white" stroke-width="1.5" stroke-linecap="round" stroke-linejoin="round"/>
  </g>
</svg>